<svg width="37" height="35" viewBox="0 0 37 35" fill="none" xmlns="http://www.w3.org/2000/svg">
<ellipse cx="18.5" cy="17.5" rx="18.5" ry="17.5" fill="#141414"/>
<path d="M26.6289 22.189C25.426 20.1915 23.5723 18.7592 21.4089 18.0802C22.479 17.4683 23.3104 16.536 23.7754 15.4263C24.2404 14.3167 24.3134 13.0911 23.983 11.9378C23.6527 10.7845 22.9373 9.7672 21.9468 9.04219C20.9562 8.31718 19.7453 7.92453 18.4999 7.92453C17.2546 7.92453 16.0436 8.31718 15.0531 9.04219C14.0626 9.7672 13.3472 10.7845 13.0168 11.9378C12.6865 13.0911 12.7594 14.3167 13.2244 15.4263C13.6895 16.536 14.5209 17.4683 15.591 18.0802C13.4276 18.7584 11.5739 20.1907 10.3709 22.189C10.3268 22.2581 10.2976 22.335 10.2849 22.4151C10.2722 22.4952 10.2764 22.577 10.2971 22.6555C10.3179 22.7341 10.3548 22.8079 10.4057 22.8725C10.4566 22.9371 10.5205 22.9913 10.5935 23.0318C10.6666 23.0724 10.7474 23.0984 10.8311 23.1085C10.9148 23.1186 10.9998 23.1124 11.081 23.0904C11.1622 23.0685 11.238 23.0311 11.304 22.9805C11.3699 22.9299 11.4246 22.8671 11.4649 22.7959C12.9529 20.3258 15.5831 18.851 18.4999 18.851C21.4168 18.851 24.047 20.3258 25.535 22.7959C25.5753 22.8671 25.63 22.9299 25.6959 22.9805C25.7618 23.0311 25.8376 23.0685 25.9188 23.0904C26.0001 23.1124 26.085 23.1186 26.1688 23.1085C26.2525 23.0984 26.3333 23.0724 26.4063 23.0318C26.4794 22.9913 26.5433 22.9371 26.5942 22.8725C26.6451 22.8079 26.682 22.7341 26.7028 22.6555C26.7235 22.577 26.7277 22.4952 26.715 22.4151C26.7023 22.335 26.673 22.2581 26.6289 22.189ZM14.0769 13.3888C14.0769 12.5485 14.3363 11.7272 14.8223 11.0285C15.3083 10.3299 15.9991 9.78535 16.8073 9.4638C17.6155 9.14225 18.5048 9.05812 19.3628 9.22205C20.2208 9.38597 21.0089 9.79059 21.6275 10.3847C22.2461 10.9789 22.6674 11.7359 22.838 12.56C23.0087 13.3841 22.9211 14.2383 22.5863 15.0146C22.2516 15.7909 21.6846 16.4544 20.9573 16.9212C20.2299 17.388 19.3747 17.6372 18.4999 17.6372C17.3272 17.636 16.2029 17.188 15.3737 16.3915C14.5445 15.5951 14.0781 14.5152 14.0769 13.3888Z" fill="white"/>
</svg>
